<?xml version="1.0" standalone="no"?>
<!DOCTYPE svg PUBLIC "-//W3C//DTD SVG 20010904//EN"
 "http://www.w3.org/TR/2001/REC-SVG-20010904/DTD/svg10.dtd">
<svg version="1.0" xmlns="http://www.w3.org/2000/svg"
 width="225.000000pt" height="225.000000pt" viewBox="0 0 225.000000 225.000000"
 preserveAspectRatio="xMidYMid meet">
<metadata>
Created by potrace 1.14, written by Peter Selinger 2001-2017
</metadata>
<g transform="translate(0.000000,225.000000) scale(0.100000,-0.100000)"
fill="#000000" stroke="none">
<path d="M552 2238 c-9 -9 -12 -68 -12 -205 l0 -192 -30 -16 c-33 -17 -70 -69
-70 -97 0 -15 -10 -18 -60 -18 -48 0 -61 -4 -70 -19 -15 -29 -13 -296 3 -309
6 -5 38 -13 70 -16 39 -5 57 -12 57 -22 0 -10 -14 -14 -54 -14 -83 0 -86 -5
-86 -175 0 -170 3 -175 85 -175 l54 0 3 -449 3 -449 25 -27 c51 -56 43 -55
655 -55 612 0 604 -1 655 55 l25 27 3 449 3 449 54 0 c82 0 85 5 85 175 0 170
-3 175 -86 175 -39 0 -54 4 -54 14 0 14 42 26 91 26 18 0 32 7 39 19 5 11 10
79 10 151 0 72 -5 140 -10 151 -9 15 -22 19 -70 19 -50 0 -60 3 -60 18 0 28
-37 80 -70 97 l-30 16 0 192 c0 137 -3 196 -12 205 -17 17 -1129 17 -1146 0z
m1078 -233 l0 -165 -502 2 -503 3 -3 163 -2 162 505 0 505 0 0 -165z m82 -262
c17 -15 18 -54 18 -820 0 -790 0 -803 -20 -823 -20 -20 -33 -20 -585 -20 -552
0 -565 0 -585 20 -20 20 -20 33 -20 822 0 732 1 803 17 820 15 17 47 18 586
18 517 0 572 -2 589 -17z m-1272 -203 l0 -90 -30 0 -30 0 0 90 0 90 30 0 30 0
0 -90z m1430 0 l0 -90 -30 0 -30 0 0 90 0 90 30 0 30 0 0 -90z m-1435 -385 c0
-89 0 -90 -25 -90 -24 0 -25 2 -28 79 -3 94 1 108 30 104 22 -3 23 -7 23 -93z
m1430 0 c0 -89 0 -90 -25 -90 -24 0 -25 2 -28 79 -3 94 1 108 30 104 22 -3 23
-7 23 -93z"/>
<path d="M715 2097 c-13 -10 -16 -21 -11 -41 l7 -27 122 3 c119 3 122 4 125
26 7 44 -12 52 -122 52 -70 0 -108 -4 -121 -13z"/>
<path d="M1300 2096 c-6 -8 -10 -25 -8 -38 3 -22 6 -23 125 -26 l122 -3 7 27
c11 44 -14 54 -132 54 -76 0 -105 -4 -114 -14z"/>
<path d="M707 1974 c-14 -14 -6 -54 12 -64 11 -5 62 -10 113 -10 105 0 132 11
126 51 -3 24 -4 24 -124 27 -66 1 -123 -1 -127 -4z"/>
<path d="M1297 1974 c-14 -14 -6 -54 12 -64 11 -5 62 -10 113 -10 105 0 132
11 126 51 -3 24 -4 24 -124 27 -66 1 -123 -1 -127 -4z"/>
<path d="M664 1631 c-87 -40 -117 -146 -64 -224 63 -93 203 -89 257 8 50 88
10 191 -86 224 -45 15 -59 14 -107 -8z m95 -76 c49 -25 56 -82 15 -114 -48
-38 -106 -17 -120 41 -5 22 0 33 24 58 35 34 42 36 81 15z"/>
<path d="M1075 1638 c-163 -57 -121 -298 52 -298 89 0 157 75 150 163 -5 60
-30 95 -87 125 -48 24 -69 26 -115 10z m79 -79 c36 -17 54 -65 35 -98 -44 -79
-164 -26 -130 57 11 26 40 49 63 51 4 1 18 -4 32 -10z"/>
<path d="M1476 1640 c-86 -26 -130 -135 -88 -219 24 -48 62 -73 120 -79 97 -9
167 56 167 153 -1 64 -31 110 -89 136 -45 20 -66 22 -110 9z m96 -100 c24 -25
29 -36 24 -58 -15 -60 -79 -80 -121 -37 -39 38 -30 86 20 113 31 17 44 14 77
-18z"/>
<path d="M612 998 c-17 -17 -17 -799 0 -816 17 -17 1009 -17 1026 0 17 17 17
799 0 816 -17 17 -1009 17 -1026 0z m958 -408 l0 -340 -445 0 -445 0 0 340 0
340 445 0 445 0 0 -340z"/>
<path d="M780 771 c-13 -25 -13 -27 6 -45 13 -14 58 -16 338 -16 306 0 324 1
340 19 14 15 15 24 6 40 -11 21 -16 21 -345 21 -320 0 -335 -1 -345 -19z"/>
<path d="M780 611 c-13 -25 -13 -27 6 -45 13 -14 58 -16 339 -16 281 0 326 2
339 16 19 18 19 20 6 45 -10 18 -25 19 -345 19 -320 0 -335 -1 -345 -19z"/>
<path d="M786 454 c-19 -18 -19 -20 -6 -45 10 -18 25 -19 345 -19 320 0 335 1
345 19 13 25 13 27 -6 45 -13 14 -58 16 -339 16 -281 0 -326 -2 -339 -16z"/>
</g>
</svg>
